<svg version="1.1" id="Layer_1" xmlns="http://www.w3.org/2000/svg" x="0" y="0" viewBox="0 0 121.7 73.1" xml:space="preserve"><style>.st0{fill:#e3e3e3}</style><path class="st0" d="M40.3 3.8h8.1v49h-8.1zm12.5 0h8.1v49h-8.1z"/><linearGradient id="SVGID_1_" gradientUnits="userSpaceOnUse" x1="64.031" y1="36.395" x2="98.359" y2="36.395"><stop offset="0" stop-color="#cb004b"/><stop offset=".36" stop-color="#e30613"/><stop offset="1" stop-color="#f18a00"/></linearGradient><path d="M93.5 24.1c-3.2-3.2-7.5-4.9-12.3-4.9-4.8 0-9.1 1.7-12.3 4.9-3.1 3.2-4.9 7.5-4.9 12.3 0 4.8 1.7 9.2 4.9 12.3 3.1 3.2 7.5 4.9 12.3 4.9 4.8 0 9.2-1.7 12.3-4.9 3.2-3.2 4.9-7.5 4.9-12.3s-1.8-9.2-4.9-12.3zM81.2 45.9c-5.2 0-8.9-4-8.9-9.5s3.7-9.5 8.9-9.5 8.9 4 8.9 9.5-3.8 9.5-8.9 9.5z" fill="url(#SVGID_1_)"/><path class="st0" d="M36.6 52.8V35.9c0-4.6-1.7-8.9-4.9-11.9-3.2-3.1-7.5-4.8-12.3-4.8-4.8 0-9.1 1.7-12.3 4.8-3.1 3.1-4.8 7.3-4.8 11.9 0 4.6 1.7 8.9 4.9 11.9 3.1 3.1 7.5 4.8 12.3 4.8 3.2 0 6.2-.8 8.8-2.2l.5-.3v2.6h7.8zm-17.1-7.6c-5.2 0-8.9-3.9-8.9-9.2 0-5.4 3.7-9.2 8.9-9.2s8.9 3.9 8.9 9.2c0 5.3-3.8 9.2-8.9 9.2zm98.2-24.8h-6.8V3.8H103v16.6h-3.3v7.4h3.3v25h7.9v-25h6.8zM3.5 67.9c0-.3.1-.4.4-.3.6.2 1.3.3 2.2.3 1.4 0 2-.3 2-1.1 0-.6-.3-.9-1.2-1.5l-2-1.2c-.9-.6-1.3-1.3-1.3-2.1 0-1.4.9-2 2.8-2 .8 0 1.4.1 2 .3.3.1.4.2.4.5v.2c0 .3-.1.4-.4.3-.6-.2-1.2-.3-2-.3-1.2 0-1.7.3-1.7 1 0 .6.3.8.9 1.3l2 1.2c1 .6 1.5 1.2 1.5 2.2 0 1.4-1 2.1-3 2.1-.8 0-1.6-.1-2.1-.3-.3-.1-.4-.2-.4-.5v-.1zm12.7-2.5c0 .3-.1.4-.5.4h-4v.4c0 1.2.6 1.7 2.1 1.7.6 0 1.2-.1 1.8-.3.3-.1.4 0 .4.3v.1c0 .3-.1.4-.4.5-.6.2-1.2.3-1.8.3-2.1 0-3-.8-3-2.8v-1.2c0-1.9.9-2.8 2.8-2.8 1.7 0 2.7.9 2.7 2.6-.1.4-.1.7-.1.8zm-4.5-.4h3.6v-.4c0-1.1-.6-1.6-1.8-1.6-1.2 0-1.8.5-1.8 1.6v.4zm11.6.4c0 .3-.1.4-.5.4h-4v.4c0 1.2.6 1.7 2.1 1.7.6 0 1.2-.1 1.8-.3.3-.1.4 0 .4.3v.1c0 .3-.1.4-.4.5-.6.2-1.2.3-1.8.3-2.1 0-3-.8-3-2.8v-1.2c0-1.9.9-2.8 2.8-2.8 1.7 0 2.7.9 2.7 2.6 0 .4 0 .7-.1.8zm-4.4-.4h3.6v-.4c0-1.1-.6-1.6-1.8-1.6-1.2 0-1.8.5-1.8 1.6v.4zm6.9 2.4c.4 0 .7.3.7.7 0 .4-.3.7-.7.7-.4 0-.7-.3-.7-.7 0-.4.3-.7.7-.7zm5.5-1.8c0 1.5.6 2.3 2.3 2.3.7 0 1.3-.1 1.9-.3.3-.1.4 0 .4.3v.1c0 .3-.1.4-.4.5-.5.2-1.1.3-1.9.3-2.3 0-3.4-1-3.4-3.3v-2.1c0-2.3 1.1-3.4 3.4-3.4.7 0 1.3.1 1.8.3.3.1.4.2.4.5v.2c0 .3-.1.4-.4.3-.6-.2-1.2-.4-1.8-.4-1.6 0-2.3.8-2.3 2.5v2.2zm6.2.5v-1.2c0-1.8 1-2.8 2.9-2.8 2 0 2.9 1 2.9 2.8v1.2c0 1.8-1 2.8-2.9 2.8-2.1-.1-2.9-1-2.9-2.8zm4.8-1.3c0-1.3-.4-1.8-1.9-1.8s-1.9.6-1.9 1.8V66c0 1.3.5 1.8 1.9 1.8s1.9-.6 1.9-1.8v-1.2zm3.8 3.5c0 .4-.1.4-.4.4h-.1c-.3 0-.4-.1-.4-.4v-3.7c0-1.6.9-2.5 2.8-2.5s2.7.9 2.7 2.5v3.7c0 .4-.1.4-.4.4H50c-.4 0-.4-.1-.4-.4v-3.7c0-1.1-.4-1.5-1.7-1.5-1.3 0-1.8.5-1.8 1.5v3.7zm5.8-5.6c0-.3.1-.4.4-.4l.8-.1.1-1.4c0-.3.1-.4.4-.4h.1c.3 0 .4.1.4.4v1.4h2.1c.3 0 .4.1.4.4v.1c0 .3-.1.4-.4.4H54v3.4c0 1 .4 1.4 1.2 1.4.5 0 .9 0 1.2-.1.3-.1.4 0 .4.3v.1c0 .3-.1.4-.4.5-.4.1-.7.1-1.1.1-1.5 0-2.2-.8-2.2-2.3v-3.4h-.8c-.3 0-.4 0-.4-.4zm7.3 5.6c0 .4-.1.4-.4.4h-.1c-.3 0-.4-.1-.4-.4v-3.9c0-1.5.8-2.3 2.3-2.3h.4c.3 0 .4.1.4.5v.1c0 .3-.1.4-.4.3h-.4c-.9 0-1.3.4-1.3 1.4v3.9zm3.3-2.2v-1.2c0-1.8 1-2.8 2.9-2.8 2 0 2.9 1 2.9 2.8v1.2c0 1.8-1 2.8-2.9 2.8-2-.1-2.9-1-2.9-2.8zm4.8-1.3c0-1.3-.4-1.8-1.9-1.8s-1.9.6-1.9 1.8V66c0 1.3.5 1.8 1.9 1.8s1.9-.6 1.9-1.8v-1.2zm2.9-4.9c0-.4.1-.4.4-.4h.1c.3 0 .4.1.4.4v7c0 .7.2 1 .7 1h.1c.3 0 .4 0 .4.3v.1c0 .3-.1.4-.4.5h-.2c-.9 0-1.5-.5-1.5-1.8v-7.1zm4 7.5c.4 0 .7.3.7.7 0 .4-.3.7-.7.7-.4 0-.7-.3-.7-.7 0-.4.3-.7.7-.7zm4.4.5c0-.3.1-.4.4-.3.6.2 1.3.3 2.2.3 1.4 0 2-.3 2-1.1 0-.6-.3-.9-1.2-1.5l-2-1.2c-.9-.5-1.3-1.2-1.3-2.1 0-1.4.9-2 2.8-2 .8 0 1.4.1 2 .3.3.1.4.2.4.5v.2c0 .3-.1.4-.4.3-.6-.2-1.2-.3-2-.3-1.2 0-1.7.3-1.7 1 0 .6.3.8.9 1.3l2 1.2c1 .6 1.5 1.2 1.5 2.2 0 1.4-1 2.1-3 2.1-.8 0-1.6-.1-2.1-.3-.3-.1-.4-.2-.4-.5v-.1zm12.7-2.5c0 .3-.1.4-.5.4h-4v.4c0 1.2.6 1.7 2.1 1.7.6 0 1.2-.1 1.8-.3.3-.1.4 0 .4.3v.1c0 .3-.1.4-.4.5-.6.2-1.2.3-1.8.3-2.1 0-3-.8-3-2.8v-1.2c0-1.9.9-2.8 2.8-2.8 1.7 0 2.7.9 2.7 2.6-.1.4-.1.7-.1.8zm-4.5-.4h3.6v-.4c0-1.1-.6-1.6-1.8-1.6-1.2 0-1.8.5-1.8 1.6v.4zm6.2-.2c0-1.7.9-2.7 2.9-2.7.4 0 .8.1 1.2.2.3.1.4.2.4.5v.1c0 .3-.1.4-.4.3-.3-.1-.7-.2-1.1-.2-1.5 0-2 .6-2 1.8v1.3c0 1.3.6 1.8 2.1 1.8.4 0 .8-.1 1.2-.2.3-.1.4 0 .4.3v.1c0 .3-.1.4-.4.5-.4.1-.8.2-1.2.2-2 0-3-.9-3-2.7v-1.3zm6.9 1.6c0 1 .4 1.5 1.8 1.5 1.3 0 1.8-.5 1.8-1.5v-3.7c0-.3.1-.4.4-.4h.1c.4 0 .4.1.4.4v3.7c0 1.6-.8 2.5-2.7 2.5-1.8 0-2.8-.8-2.8-2.5v-3.7c0-.3.1-.4.4-.4h.1c.4 0 .4.1.4.4v3.7zm7.4 1.9c0 .4-.1.4-.4.4h-.1c-.3 0-.4-.1-.4-.4v-3.9c0-1.5.8-2.3 2.3-2.3h.4c.3 0 .4.1.4.5v.1c0 .3-.1.4-.4.3h-.4c-1 0-1.3.4-1.3 1.4v3.9zm8.8-2.9c0 .3-.1.4-.5.4h-4v.4c0 1.2.6 1.7 2.1 1.7.6 0 1.2-.1 1.8-.3.3-.1.4 0 .4.3v.1c0 .3-.1.4-.4.5-.6.2-1.2.3-1.8.3-2.1 0-3-.8-3-2.8v-1.2c0-1.9.9-2.8 2.8-2.8 1.7 0 2.7.9 2.7 2.6-.1.4-.1.7-.1.8zm-4.5-.4h3.6v-.4c0-1.1-.6-1.6-1.8-1.6-1.2 0-1.8.5-1.8 1.6v.4zm6 2.1c.4 0 .7.3.7.7 0 .4-.3.7-.7.7-.4 0-.7-.3-.7-.7 0-.4.4-.7.7-.7z"/></svg>